<svg xmlns="http://www.w3.org/2000/svg" width="191" height="95" fill="#235427"><path d="M13.992 50.492c-1.953 0-3.906-.297-5.86-.89-1.937-.594-3.812-1.516-5.624-2.766v-6.61h2.344l.351 5.32c1.375.86 2.805 1.5 4.29 1.923a16.39 16.39 0 0 0 4.5.633c1.796 0 3.359-.274 4.687-.82 1.343-.563 2.383-1.337 3.117-2.321.75-1 1.125-2.148 1.125-3.445 0-1.25-.305-2.344-.914-3.282-.594-.953-1.57-1.789-2.93-2.507-1.344-.72-3.172-1.375-5.484-1.97-2.485-.64-4.516-1.39-6.094-2.25-1.563-.859-2.719-1.89-3.469-3.093-.734-1.219-1.101-2.664-1.101-4.336 0-1.703.453-3.203 1.36-4.5.905-1.312 2.17-2.336 3.796-3.07 1.64-.75 3.547-1.125 5.719-1.125 2.297 0 4.343.344 6.14 1.031 1.813.688 3.344 1.57 4.594 2.648v6.094h-2.32l-.352-4.828c-.984-.797-2.148-1.422-3.492-1.875-1.344-.453-2.867-.68-4.57-.68-1.672 0-3.11.282-4.313.844-1.203.547-2.133 1.29-2.789 2.227-.64.937-.96 2-.96 3.187 0 1.14.257 2.149.773 3.024.515.86 1.406 1.625 2.671 2.297 1.266.656 3.04 1.289 5.32 1.898 3.704.953 6.5 2.242 8.391 3.867 1.891 1.61 2.836 3.727 2.836 6.352 0 1.812-.5 3.398-1.5 4.758-.984 1.343-2.359 2.39-4.125 3.14-1.765.75-3.804 1.125-6.117 1.125ZM29.836 50v-2.04l3.82-.304V27.008l-3.82-.305v-2.062h6.633v23.015l3.82.305V50H29.836Zm3.492-32.508v-4.055h3.14v4.055h-3.14ZM44.672 50v-2.04l3.82-.304V27.008l-3.82-.305v-2.062H51l.234 4.336c.782-1.516 1.852-2.696 3.211-3.54 1.375-.843 3.008-1.265 4.899-1.265 1.953 0 3.578.484 4.875 1.453 1.297.953 2.226 2.422 2.789 4.406.719-1.828 1.789-3.265 3.21-4.312 1.438-1.047 3.173-1.57 5.204-1.57 2.703 0 4.789.906 6.258 2.718 1.484 1.797 2.226 4.578 2.226 8.344v12.422l3.82.304v2.04H77.25v-2.04l3.82-.304V35.164c0-3.14-.554-5.36-1.664-6.656-1.094-1.297-2.617-1.945-4.57-1.945-2.203 0-3.898.703-5.086 2.109-1.188 1.39-1.898 3.156-2.133 5.297v13.687l3.82.305V50H60.962v-2.04l3.82-.304V35.164c0-3.078-.562-5.273-1.687-6.586-1.11-1.328-2.64-1.992-4.594-1.992-2.063 0-3.672.547-4.828 1.64-1.14 1.094-1.922 2.547-2.344 4.36v15.07l3.82.305V50H44.672Zm58.476.492c-1.953 0-3.906-.297-5.859-.89-1.937-.594-3.812-1.516-5.625-2.766v-6.61h2.344l.351 5.32a16.67 16.67 0 0 0 4.29 1.923 16.39 16.39 0 0 0 4.499.633c1.797 0 3.36-.274 4.688-.82 1.344-.563 2.383-1.337 3.117-2.321.75-1 1.125-2.148 1.125-3.445 0-1.25-.305-2.344-.914-3.282-.594-.953-1.57-1.789-2.93-2.507-1.343-.72-3.172-1.375-5.484-1.97-2.484-.64-4.516-1.39-6.094-2.25-1.562-.859-2.719-1.89-3.469-3.093-.734-1.219-1.101-2.664-1.101-4.336 0-1.703.453-3.203 1.36-4.5.906-1.312 2.171-2.336 3.796-3.07 1.64-.75 3.547-1.125 5.719-1.125 2.297 0 4.344.344 6.141 1.031 1.812.688 3.343 1.57 4.593 2.648v6.094h-2.32l-.352-4.828c-.984-.797-2.148-1.422-3.492-1.875-1.343-.453-2.867-.68-4.57-.68-1.672 0-3.11.282-4.313.844-1.203.547-2.132 1.29-2.789 2.227-.64.937-.96 2-.96 3.187 0 1.14.257 2.149.773 3.024.516.86 1.406 1.625 2.672 2.297 1.265.656 3.039 1.289 5.32 1.898 3.703.953 6.5 2.242 8.391 3.867 1.89 1.61 2.836 3.727 2.836 6.352 0 1.812-.5 3.398-1.5 4.758-.985 1.343-2.36 2.39-4.125 3.14-1.766.75-3.805 1.125-6.118 1.125ZM118.992 50v-2.04l3.82-.304V27.008l-3.82-.305v-2.062h6.633v23.015l3.82.305V50h-10.453Zm3.492-32.508v-4.055h3.141v4.055h-3.141ZM133.828 50v-2.04l3.82-.304V27.008l-3.82-.305v-2.062h6.328l.235 4.336c.781-1.516 1.851-2.696 3.211-3.54 1.375-.843 3.007-1.265 4.898-1.265 1.953 0 3.578.484 4.875 1.453 1.297.953 2.227 2.422 2.789 4.406.719-1.828 1.789-3.265 3.211-4.312 1.437-1.047 3.172-1.57 5.203-1.57 2.703 0 4.789.906 6.258 2.718 1.484 1.797 2.226 4.578 2.226 8.344v12.422l3.821.304v2.04h-10.477v-2.04l3.821-.304V35.164c0-3.14-.555-5.36-1.665-6.656-1.093-1.297-2.617-1.945-4.57-1.945-2.203 0-3.898.703-5.086 2.109-1.187 1.39-1.898 3.156-2.133 5.297v13.687l3.821.305V50h-10.477v-2.04l3.821-.304V35.164c0-3.078-.563-5.273-1.688-6.586-1.109-1.328-2.641-1.992-4.594-1.992-2.062 0-3.672.547-4.828 1.64-1.14 1.094-1.922 2.547-2.344 4.36v15.07l3.821.305V50h-10.477ZM93.242 82.492c-2.172 0-4.086-.523-5.742-1.57-1.656-1.063-2.953-2.524-3.89-4.383-.938-1.875-1.407-4.031-1.407-6.469v-1.289c0-2.422.469-4.578 1.406-6.469.938-1.906 2.204-3.406 3.797-4.5 1.61-1.093 3.399-1.64 5.367-1.64 2.079 0 3.852.445 5.32 1.336 1.485.89 2.618 2.148 3.399 3.773.797 1.61 1.196 3.508 1.196 5.696v2.39H85.109l-.046 1.031c.015 1.875.359 3.547 1.03 5.016.688 1.469 1.641 2.625 2.86 3.469 1.234.844 2.664 1.265 4.29 1.265 1.593 0 2.991-.25 4.195-.75a10.63 10.63 0 0 0 3.21-2.085l1.196 1.921c-.985.938-2.18 1.72-3.586 2.344-1.39.61-3.063.914-5.016.914Zm-7.945-15.469h14.578v-.703c0-1.484-.29-2.812-.867-3.984-.563-1.188-1.375-2.117-2.438-2.79-1.047-.671-2.312-1.007-3.797-1.007-1.343 0-2.554.367-3.632 1.102-1.079.718-1.961 1.71-2.649 2.976-.672 1.25-1.086 2.672-1.242 4.266l.047.14Zm32.812 25.22c-1.234 0-2.539-.15-3.914-.446-1.375-.297-2.578-.695-3.609-1.195l.75-2.344c1 .484 2.055.86 3.164 1.125 1.125.265 2.312.398 3.562.398 2.407 0 4.211-.719 5.415-2.156 1.218-1.422 1.828-3.406 1.828-5.953v-3.094a8.775 8.775 0 0 1-3.258 2.883c-1.313.687-2.844 1.031-4.594 1.031-2.031 0-3.773-.515-5.226-1.547-1.454-1.03-2.571-2.476-3.352-4.336-.781-1.875-1.172-4.07-1.172-6.586v-.492c0-2.703.391-5.054 1.172-7.054.781-2 1.898-3.547 3.352-4.641 1.468-1.11 3.226-1.664 5.273-1.664 1.812 0 3.383.39 4.711 1.172 1.328.781 2.406 1.875 3.234 3.281l.305-3.984h2.367v25.03c0 2.173-.398 4.048-1.195 5.626-.781 1.578-1.922 2.797-3.422 3.656-1.5.86-3.297 1.29-5.391 1.29Zm-.14-12.165c1.843 0 3.367-.422 4.57-1.266 1.219-.843 2.141-2 2.766-3.468V63.742c-.594-1.484-1.469-2.71-2.625-3.68-1.157-.984-2.711-1.476-4.664-1.476-1.641 0-3.016.469-4.125 1.406-1.11.922-1.946 2.203-2.508 3.844-.563 1.64-.844 3.539-.844 5.695v.492c0 3.063.617 5.508 1.852 7.336 1.25 1.813 3.109 2.72 5.578 2.72Zm9.586-21.023-.914-2.414h4.734v2.039l-3.82.375Zm14.929 23.437c-2.406 0-4.289-.64-5.648-1.922-1.359-1.28-2.039-3.015-2.039-5.203 0-1.562.453-2.93 1.359-4.101.906-1.188 2.188-2.11 3.844-2.766 1.672-.656 3.648-.984 5.93-.984h5.25v-2.907c0-1.828-.547-3.296-1.641-4.406-1.078-1.125-2.711-1.687-4.898-1.687-1.235 0-2.344.203-3.329.609-.968.39-1.812.89-2.531 1.5l-.234 3.867h-2.32v-5.297a12.55 12.55 0 0 1 3.726-2.203c1.391-.547 2.969-.82 4.735-.82 2.984 0 5.281.75 6.89 2.25 1.61 1.5 2.414 3.578 2.414 6.234v12.235c0 .5.016 1 .047 1.5.031.484.086.968.164 1.453l3.024.117V82h-5.532a38.123 38.123 0 0 1-.398-2.227 21.27 21.27 0 0 1-.117-1.898c-.922 1.36-2.141 2.469-3.657 3.328-1.515.86-3.195 1.29-5.039 1.29Zm.328-2.46c1.735 0 3.376-.454 4.922-1.36 1.563-.922 2.711-2.14 3.446-3.656v-5.344h-5.274c-2.594 0-4.625.562-6.094 1.687-1.468 1.11-2.203 2.477-2.203 4.102 0 1.36.469 2.46 1.407 3.305.937.843 2.203 1.265 3.796 1.265ZM160.906 82v-2.04l3.821-.304V59.008l-3.821-.305v-2.062h6.305l.234 4.547c.813-1.594 1.907-2.829 3.282-3.704s3.015-1.312 4.921-1.312c2.75 0 4.844.844 6.282 2.531 1.437 1.672 2.156 4.297 2.156 7.875v13.078l3.82.305V82h-10.453v-2.04l3.82-.304V66.602c0-2.938-.539-5.008-1.617-6.211-1.078-1.203-2.617-1.805-4.617-1.805-2.094 0-3.75.586-4.969 1.758-1.218 1.172-2.062 2.703-2.531 4.593v14.72l3.82.304V82h-10.453Z"/><path d="M65.219 82 48.603 50.102l-3.918-.107h10.452l-3.51.153L65.219 76.07l1.289 2.25h.14l1.243-2.25 13.15-25.922-3.775-.18h10.441l-3.83.134L67.89 82h-2.672Z"/></svg>